<svg viewBox="337.8751 271.1155 374.2497 172.769" width="5000" height="2308.204923076759" xmlns="http://www.w3.org/2000/svg" xmlns:xlink="http://www.w3.org/1999/xlink" preserveAspectRatio="none"><defs></defs><style>.aa3B8OKsRqPGcolor {fill:#FFFFFF;fill-opacity:1;}.aa3B8OKsRqPGstrokeColor-str {stroke:#D9D9D9;stroke-opacity:1;}.aD6z1nYkhcolor {fill:#FFFFFF;fill-opacity:1;}.aD6z1nYkhstrokeColor-str {stroke:#D9D9D9;stroke-opacity:1;}.aE2RU7Htj2Qcolor {fill:#FFFFFF;fill-opacity:1;}.aE2RU7Htj2QstrokeColor-str {stroke:#D9D9D9;stroke-opacity:1;}.aI-9jfLjmbHcolor {fill:#FFFFFF;fill-opacity:1;}.aI-9jfLjmbHstrokeColor-str {stroke:#D9D9D9;stroke-opacity:1;}.aiJhSXwmtgWcolor {fill:#FFFFFF;fill-opacity:1;}.aiJhSXwmtgWstrokeColor-str {stroke:#D9D9D9;stroke-opacity:1;}.aioyePg9dxcolor {fill:#FFFFFF;fill-opacity:1;}.aioyePg9dxstrokeColor-str {stroke:#D9D9D9;stroke-opacity:1;}.aLgOaV3zRcolors-0 {fill:#FFFFFF;fill-opacity:1;}.aLgOaV3zRcolors-1 {fill:#D9D9D9;fill-opacity:1;}.aXmapOGdeCfillColor {fill:#FFFFFF;fill-opacity:1;}.aXmapOGdeCstrokeColor-str {stroke:#D9D9D9;stroke-opacity:1;}</style><g opacity="1" transform="rotate(0 532.6296 375.6557)">
<svg width="179.4952" height="40" x="532.6296" y="375.6557" version="1.1" preserveAspectRatio="none" viewBox="3.32 -31.48 177.51999999999998 39.56">
  <g transform="matrix(1 0 0 1 0 0)" class="aD6z1nYkhcolor"><path id="id-D6z1nYkh7" d="M3.32 0L3.32-28L9.80-28L9.80-5.28L23.84-5.28L23.84 0L3.32 0Z M29.04 0L29.04-21.52L35.28-21.52L35.28 0L29.04 0ZM32.16-24.52Q30.44-24.52 29.36-25.52Q28.28-26.52 28.28-28L28.28-28Q28.28-29.48 29.36-30.48Q30.44-31.48 32.16-31.48L32.16-31.48Q33.88-31.48 34.96-30.52Q36.04-29.56 36.04-28.12L36.04-28.12Q36.04-26.56 34.96-25.54Q33.88-24.52 32.16-24.52L32.16-24.52Z M56.16-21.84Q60.16-21.84 62.62-19.44Q65.08-17.04 65.08-12.32L65.08-12.32L65.08 0L58.84 0L58.84-11.36Q58.84-13.92 57.72-15.18Q56.60-16.44 54.48-16.44L54.48-16.44Q52.12-16.44 50.72-14.98Q49.32-13.52 49.32-10.64L49.32-10.64L49.32 0L43.08 0L43.08-21.52L49.04-21.52L49.04-19Q50.28-20.36 52.12-21.10Q53.96-21.84 56.16-21.84L56.16-21.84Z M88.76 0L81.96-8.44L78.96-5.48L78.96 0L72.72 0L72.72-29.68L78.96-29.68L78.96-12.88L88.08-21.52L95.52-21.52L86.56-12.40L96.32 0L88.76 0Z M115.80-21.52L122.04-21.52L122.04 0L116.08 0L116.08-2.48Q113.76 0.32 109.36 0.32L109.36 0.32Q106.32 0.32 103.86-1.04Q101.40-2.40 100.00-4.92Q98.60-7.44 98.60-10.76L98.60-10.76Q98.60-14.08 100.00-16.60Q101.40-19.12 103.86-20.48Q106.32-21.84 109.36-21.84L109.36-21.84Q113.48-21.84 115.80-19.24L115.80-19.24L115.80-21.52ZM110.44-4.80Q112.80-4.80 114.36-6.42Q115.92-8.04 115.92-10.76L115.92-10.76Q115.92-13.48 114.36-15.10Q112.80-16.72 110.44-16.72L110.44-16.72Q108.04-16.72 106.48-15.10Q104.92-13.48 104.92-10.76L104.92-10.76Q104.92-8.04 106.48-6.42Q108.04-4.80 110.44-4.80L110.44-4.80Z M146.08-21.52L152.00-21.52L152.00-3.60Q152.00 2.32 148.92 5.20Q145.84 8.08 139.92 8.08L139.92 8.08Q136.80 8.08 134.00 7.32Q131.20 6.56 129.36 5.12L129.36 5.12L131.84 0.64Q133.20 1.76 135.28 2.42Q137.36 3.08 139.44 3.08L139.44 3.08Q142.68 3.08 144.22 1.62Q145.76 0.16 145.76-2.80L145.76-2.80L145.76-3.72Q143.32-1.04 138.96-1.04L138.96-1.04Q136.00-1.04 133.54-2.34Q131.08-3.64 129.64-6Q128.20-8.36 128.20-11.44L128.20-11.44Q128.20-14.52 129.64-16.88Q131.08-19.24 133.54-20.54Q136.00-21.84 138.96-21.84L138.96-21.84Q143.64-21.84 146.08-18.76L146.08-18.76L146.08-21.52ZM140.20-6.16Q142.68-6.16 144.26-7.62Q145.84-9.08 145.84-11.44L145.84-11.44Q145.84-13.80 144.26-15.26Q142.68-16.72 140.20-16.72L140.20-16.72Q137.72-16.72 136.12-15.26Q134.52-13.80 134.52-11.44L134.52-11.44Q134.52-9.08 136.12-7.62Q137.72-6.16 140.20-6.16L140.20-6.16Z M170.64-4.68Q172.32-4.68 173.62-5.18Q174.92-5.68 176.04-6.76L176.04-6.76L179.36-3.16Q176.32 0.32 170.48 0.32L170.48 0.32Q166.84 0.32 164.04-1.10Q161.24-2.52 159.72-5.04Q158.20-7.56 158.20-10.76L158.20-10.76Q158.20-13.92 159.70-16.46Q161.20-19 163.82-20.42Q166.44-21.84 169.72-21.84L169.72-21.84Q172.80-21.84 175.32-20.54Q177.84-19.24 179.34-16.78Q180.84-14.32 180.84-10.96L180.84-10.96L164.92-7.88Q165.60-6.28 167.06-5.48Q168.52-4.68 170.64-4.68L170.64-4.68ZM169.72-17.12Q167.36-17.12 165.88-15.60Q164.40-14.08 164.32-11.40L164.32-11.40L174.80-13.44Q174.36-15.12 173.00-16.12Q171.64-17.12 169.72-17.12L169.72-17.12Z"/></g>
</svg>
</g><g opacity="0.2" transform="rotate(0 337.8751 271.1155)">
<svg width="172.7717" height="172.769" x="337.8751" y="271.1155" version="1.1" preserveAspectRatio="none" viewBox="32.5 32.5 135.00100708007812 134.99899291992188">
  <g transform="matrix(1 0 0 1 0 0)" ><g><path d="M122.506 135.832H77.532c-7.208 0-13.051-5.843-13.051-13.051V77.807c0-7.208 5.843-13.051 13.051-13.051h17.186V78.51H82.469a4.263 4.263 0 0 0-4.263 4.263v34.832a4.557 4.557 0 0 0 4.557 4.557h39.743v13.67z" data-color="1" class="aLgOaV3zRcolors-0"></path><path d="M117.5 78.5H82.538a4.317 4.317 0 0 0-4.312 4.312v34.963a4.317 4.317 0 0 0 4.312 4.312H117.5a4.317 4.317 0 0 0 4.312-4.312V82.812A4.316 4.316 0 0 0 117.5 78.5zm2.755 39.275a2.758 2.758 0 0 1-2.755 2.755H82.538a2.758 2.758 0 0 1-2.755-2.755V82.812a2.758 2.758 0 0 1 2.755-2.755H117.5a2.758 2.758 0 0 1 2.755 2.755v34.963z" data-color="2" class="aLgOaV3zRcolors-1"></path><path d="M161.723 94.403c-2.865 0-5.243 2.098-5.694 4.838h-25.923v-9.689h14.132v-1.557h-14.132V77.807c0-4.191-3.41-7.601-7.601-7.601h-10.462V55.762h-1.557v14.444h-9.689V44.02a5.784 5.784 0 0 0 5.159-5.743c0-3.186-2.592-5.777-5.777-5.777s-5.777 2.592-5.777 5.777c0 2.865 2.098 5.243 4.837 5.694v26.235H89.55V55.762h-1.557v14.444H77.532c-4.191 0-7.601 3.41-7.601 7.601v10.149H55.762v1.557h14.169v9.689H43.984c-.415-2.781-2.812-4.923-5.707-4.923a5.784 5.784 0 0 0-5.777 5.777 5.784 5.784 0 0 0 5.777 5.777c2.947 0 5.381-2.22 5.73-5.074h25.925v9.689h-14.17v1.557h14.169v10.774c0 4.191 3.41 7.601 7.601 7.601h10.424v13.857h1.557V130.38h9.689v25.599a5.784 5.784 0 0 0-5.159 5.743c0 3.185 2.592 5.777 5.777 5.777s5.777-2.592 5.777-5.777c0-2.865-2.098-5.243-4.837-5.694V130.38h9.689v13.857h1.557V130.38h10.5c4.191 0 7.601-3.41 7.601-7.601v-10.736h14.132v-1.557h-14.132v-9.689h25.874a5.784 5.784 0 0 0 5.743 5.159 5.784 5.784 0 0 0 5.777-5.777 5.785 5.785 0 0 0-5.778-5.776zM95.96 38.277c0-2.327 1.893-4.22 4.22-4.22s4.22 1.893 4.22 4.22-1.893 4.22-4.22 4.22-4.22-1.893-4.22-4.22zm-57.683 66a4.225 4.225 0 0 1-4.22-4.22 4.225 4.225 0 0 1 4.22-4.22 4.225 4.225 0 0 1 4.22 4.22 4.225 4.225 0 0 1-4.22 4.22zm65.763 57.446c0 2.327-1.893 4.22-4.22 4.22s-4.22-1.893-4.22-4.22 1.893-4.22 4.22-4.22 4.22 1.893 4.22 4.22zm24.509-38.943a6.05 6.05 0 0 1-6.043 6.044H77.532a6.05 6.05 0 0 1-6.043-6.044V77.807a6.05 6.05 0 0 1 6.043-6.043h44.974a6.05 6.05 0 0 1 6.043 6.043v44.973zm33.174-18.38c-2.327 0-4.22-1.893-4.22-4.22s1.893-4.22 4.22-4.22 4.22 1.893 4.22 4.22-1.893 4.22-4.22 4.22z" data-color="2" class="aLgOaV3zRcolors-1"></path></g></g>
</svg>
</g><g opacity="1" transform="rotate(0 404.4528 348)">
<svg width="39.6162" height="19" x="404.4528" y="348" version="1.1" preserveAspectRatio="none" viewBox="2.9492 -28.0078 58.398500000000006 28.0078">
  <g transform="matrix(1 0 0 1 0 0)" class="aioyePg9dxcolor"><path id="id-ioyePg9dx2" d="M30.94-21.84L30.94-18.59Q30.94-16.86 30.51-15.49Q30.08-14.12 29.35-13.08Q28.61-12.03 27.66-11.29Q26.70-10.55 25.65-10.07Q24.61-9.59 23.54-9.38Q22.48-9.16 21.54-9.16L21.54-9.16L32.15 0L24.30 0L13.71-9.16L10.06-9.16L10.06-14.24L21.54-14.24Q22.50-14.32 23.29-14.64Q24.08-14.96 24.66-15.51Q25.23-16.05 25.55-16.83Q25.86-17.60 25.86-18.59L25.86-18.59L25.86-21.80Q25.86-22.23 25.75-22.45Q25.64-22.68 25.48-22.78Q25.31-22.89 25.13-22.91Q24.94-22.93 24.79-22.93L24.79-22.93L8.03-22.93L8.03 0L2.95 0L2.95-25.45Q2.95-25.98 3.14-26.45Q3.34-26.91 3.68-27.27Q4.02-27.62 4.49-27.81Q4.96-28.01 5.51-28.01L5.51-28.01L24.79-28.01Q26.48-28.01 27.66-27.39Q28.83-26.78 29.56-25.85Q30.29-24.92 30.62-23.85Q30.94-22.77 30.94-21.84L30.94-21.84Z M59.06-16.56L59.06-11.45L43.03-11.45L43.03-16.56L59.06-16.56ZM61.35-5.08L61.35 0L43.03 0Q41.97 0 40.72-0.37Q39.47-0.74 38.41-1.59Q37.34-2.44 36.63-3.80Q35.92-5.16 35.92-7.13L35.92-7.13L35.92-25.45Q35.92-25.98 36.11-26.45Q36.31-26.91 36.65-27.27Q36.99-27.62 37.46-27.81Q37.93-28.01 38.48-28.01L38.48-28.01L61.35-28.01L61.35-22.93L41.00-22.93L41.00-7.13Q41.00-6.13 41.52-5.61Q42.05-5.08 43.07-5.08L43.07-5.08L61.35-5.08Z"/></g>
</svg>
</g><g opacity="1" transform="rotate(0 532.6296 343.3443)">
<svg width="21.9212" height="28.3114" x="532.6296" y="343.3443" version="1.1" preserveAspectRatio="none" viewBox="3.32 -28 21.68 28">
  <g transform="matrix(1 0 0 1 0 0)" class="aI-9jfLjmbHcolor"><path id="id-I-9jfLjmbH1" d="M9.76-5.20L25-5.20L25 0L3.32 0L3.32-28L24.48-28L24.48-22.80L9.76-22.80L9.76-16.72L22.76-16.72L22.76-11.68L9.76-11.68L9.76-5.20Z"/></g>
</svg>
</g><g opacity="1" transform="rotate(0 531.1902 308.5047)">
<svg width="24.8" height="28" x="531.1902" y="308.5047" version="1.1" preserveAspectRatio="none" viewBox="3.32 -28 24.8 28">
  <g transform="matrix(1 0 0 1 0 0)" class="aiJhSXwmtgWcolor"><path id="id-iJhSXwmtgW1" d="M28.12 0L21.16 0L15.76-7.80L15.44-7.80L9.80-7.80L9.80 0L3.32 0L3.32-28L15.44-28Q19.16-28 21.90-26.76Q24.64-25.52 26.12-23.24Q27.60-20.96 27.60-17.84L27.60-17.84Q27.60-14.72 26.10-12.46Q24.60-10.20 21.84-9L21.84-9L28.12 0ZM21.04-17.84Q21.04-20.20 19.52-21.46Q18-22.72 15.08-22.72L15.08-22.72L9.80-22.72L9.80-12.96L15.08-12.96Q18-12.96 19.52-14.24Q21.04-15.52 21.04-17.84L21.04-17.84Z"/></g>
</svg>
</g><g opacity="1" transform="rotate(0 556.9902 322.5047)">
<svg width="94.209" height="15" x="556.9902" y="322.5047" version="1.1" preserveAspectRatio="none" viewBox="1.28 -31.48 199.72 31.8">
  <g transform="matrix(1 0 0 1 0 0)" class="aa3B8OKsRqPGcolor"><path id="id-a3B8OKsRqPG9" d="M13.72-4.68Q15.40-4.68 16.70-5.18Q18-5.68 19.12-6.76L19.12-6.76L22.44-3.16Q19.40 0.32 13.56 0.32L13.56 0.32Q9.92 0.32 7.12-1.10Q4.32-2.52 2.80-5.04Q1.28-7.56 1.28-10.76L1.28-10.76Q1.28-13.92 2.78-16.46Q4.28-19 6.90-20.42Q9.52-21.84 12.80-21.84L12.80-21.84Q15.88-21.84 18.40-20.54Q20.92-19.24 22.42-16.78Q23.92-14.32 23.92-10.96L23.92-10.96L8-7.88Q8.68-6.28 10.14-5.48Q11.60-4.68 13.72-4.68L13.72-4.68ZM12.80-17.12Q10.44-17.12 8.96-15.60Q7.48-14.08 7.40-11.40L7.40-11.40L17.88-13.44Q17.44-15.12 16.08-16.12Q14.72-17.12 12.80-17.12L12.80-17.12Z M37.36 0.32Q34.68 0.32 32.12-0.34Q29.56-1 28.04-2L28.04-2L30.12-6.48Q31.56-5.56 33.60-4.98Q35.64-4.40 37.60-4.40L37.60-4.40Q41.56-4.40 41.56-6.36L41.56-6.36Q41.56-7.28 40.48-7.68Q39.40-8.08 37.16-8.36L37.16-8.36Q34.52-8.76 32.80-9.28Q31.08-9.80 29.82-11.12Q28.56-12.44 28.56-14.88L28.56-14.88Q28.56-16.92 29.74-18.50Q30.92-20.08 33.18-20.96Q35.44-21.84 38.52-21.84L38.52-21.84Q40.80-21.84 43.06-21.34Q45.32-20.84 46.80-19.96L46.80-19.96L44.72-15.52Q41.88-17.12 38.52-17.12L38.52-17.12Q36.52-17.12 35.52-16.56Q34.52-16 34.52-15.12L34.52-15.12Q34.52-14.12 35.60-13.72Q36.68-13.32 39.04-12.96L39.04-12.96Q41.68-12.52 43.36-12.02Q45.04-11.52 46.28-10.20Q47.52-8.88 47.52-6.52L47.52-6.52Q47.52-4.52 46.32-2.96Q45.12-1.40 42.82-0.54Q40.52 0.32 37.36 0.32L37.36 0.32Z M53.36 0L53.36-21.52L59.60-21.52L59.60 0L53.36 0ZM56.48-24.52Q54.76-24.52 53.68-25.52Q52.60-26.52 52.60-28L52.60-28Q52.60-29.48 53.68-30.48Q54.76-31.48 56.48-31.48L56.48-31.48Q58.20-31.48 59.28-30.52Q60.36-29.56 60.36-28.12L60.36-28.12Q60.36-26.56 59.28-25.54Q58.20-24.52 56.48-24.52L56.48-24.52Z M75.12 0.32Q71.48 0.32 69.44-1.62Q67.40-3.56 67.40-7.12L67.40-7.12L67.40-29.68L73.64-29.68L73.64-7.48Q73.64-6.12 74.34-5.38Q75.04-4.64 76.32-4.64L76.32-4.64Q76.80-4.64 77.30-4.76Q77.80-4.88 78.08-5.04L78.08-5.04L78.36-0.20Q76.80 0.32 75.12 0.32L75.12 0.32Z M83.44 0L83.44-21.52L89.68-21.52L89.68 0L83.44 0ZM86.56-24.52Q84.84-24.52 83.76-25.52Q82.68-26.52 82.68-28L82.68-28Q82.68-29.48 83.76-30.48Q84.84-31.48 86.56-31.48L86.56-31.48Q88.28-31.48 89.36-30.52Q90.44-29.56 90.44-28.12L90.44-28.12Q90.44-26.56 89.36-25.54Q88.28-24.52 86.56-24.52L86.56-24.52Z M108.32-4.68Q110.00-4.68 111.30-5.18Q112.60-5.68 113.72-6.76L113.72-6.76L117.04-3.16Q114.00 0.32 108.16 0.32L108.16 0.32Q104.52 0.32 101.72-1.10Q98.92-2.52 97.40-5.04Q95.88-7.56 95.88-10.76L95.88-10.76Q95.88-13.92 97.38-16.46Q98.88-19 101.50-20.42Q104.12-21.84 107.40-21.84L107.40-21.84Q110.48-21.84 113.00-20.54Q115.52-19.24 117.02-16.78Q118.52-14.32 118.52-10.96L118.52-10.96L102.60-7.88Q103.28-6.28 104.74-5.48Q106.20-4.68 108.32-4.68L108.32-4.68ZM107.40-17.12Q105.04-17.12 103.56-15.60Q102.08-14.08 102.00-11.40L102.00-11.40L112.48-13.44Q112.04-15.12 110.68-16.12Q109.32-17.12 107.40-17.12L107.40-17.12Z M137.80-21.84Q141.80-21.84 144.26-19.44Q146.72-17.04 146.72-12.32L146.72-12.32L146.72 0L140.48 0L140.48-11.36Q140.48-13.92 139.36-15.18Q138.24-16.44 136.12-16.44L136.12-16.44Q133.76-16.44 132.36-14.98Q130.96-13.52 130.96-10.64L130.96-10.64L130.96 0L124.72 0L124.72-21.52L130.68-21.52L130.68-19Q131.92-20.36 133.76-21.10Q135.60-21.84 137.80-21.84L137.80-21.84Z M165.00 0.32Q161.56 0.32 158.82-1.10Q156.08-2.52 154.54-5.04Q153.00-7.56 153.00-10.76L153.00-10.76Q153.00-13.96 154.54-16.48Q156.08-19 158.82-20.42Q161.56-21.84 165.00-21.84L165.00-21.84Q168.40-21.84 170.94-20.42Q173.48-19 174.64-16.36L174.64-16.36L169.80-13.76Q168.12-16.72 164.96-16.72L164.96-16.72Q162.52-16.72 160.92-15.12Q159.32-13.52 159.32-10.76L159.32-10.76Q159.32-8 160.92-6.40Q162.52-4.80 164.96-4.80L164.96-4.80Q168.16-4.80 169.80-7.76L169.80-7.76L174.64-5.12Q173.48-2.56 170.94-1.12Q168.40 0.32 165.00 0.32L165.00 0.32Z M190.80-4.68Q192.48-4.68 193.78-5.18Q195.08-5.68 196.20-6.76L196.20-6.76L199.52-3.16Q196.48 0.32 190.64 0.32L190.64 0.32Q187 0.32 184.20-1.10Q181.40-2.52 179.88-5.04Q178.36-7.56 178.36-10.76L178.36-10.76Q178.36-13.92 179.86-16.46Q181.36-19 183.98-20.42Q186.60-21.84 189.88-21.84L189.88-21.84Q192.96-21.84 195.48-20.54Q198-19.24 199.50-16.78Q201-14.32 201-10.96L201-10.96L185.08-7.88Q185.76-6.28 187.22-5.48Q188.68-4.68 190.80-4.68L190.80-4.68ZM189.88-17.12Q187.52-17.12 186.04-15.60Q184.56-14.08 184.48-11.40L184.48-11.40L194.96-13.44Q194.52-15.12 193.16-16.12Q191.80-17.12 189.88-17.12L189.88-17.12Z"/></g>
</svg>
</g><g opacity="1" transform="rotate(0 557.9902 355.9954)">
<svg width="91.8897" height="18.6603" x="557.9902" y="355.9954" version="1.1" preserveAspectRatio="none" viewBox="2.88 -31.48 194.8 39.56">
  <g transform="matrix(1 0 0 1 0 0)" class="aE2RU7Htj2Qcolor"><path id="id-E2RU7Htj2Q9" d="M8.96-21.96L8.96-21.04L14.48-21.04L14.48-16.24L9.12-16.24L9.12 0L2.88 0L2.88-22Q2.88-25.68 5.06-27.84Q7.24-30 11.20-30L11.20-30Q12.60-30 13.86-29.70Q15.12-29.40 15.96-28.84L15.96-28.84L14.32-24.32Q13.24-25.08 11.80-25.08L11.80-25.08Q8.96-25.08 8.96-21.96L8.96-21.96Z M25.68-21.96L25.68-21.04L31.20-21.04L31.20-16.24L25.84-16.24L25.84 0L19.60 0L19.60-22Q19.60-25.68 21.78-27.84Q23.96-30 27.92-30L27.92-30Q29.32-30 30.58-29.70Q31.84-29.40 32.68-28.84L32.68-28.84L31.04-24.32Q29.96-25.08 28.52-25.08L28.52-25.08Q25.68-25.08 25.68-21.96L25.68-21.96Z M39.52 0L39.52-21.52L45.76-21.52L45.76 0L39.52 0ZM42.64-24.52Q40.92-24.52 39.84-25.52Q38.76-26.52 38.76-28L38.76-28Q38.76-29.48 39.84-30.48Q40.92-31.48 42.64-31.48L42.64-31.48Q44.36-31.48 45.44-30.52Q46.52-29.56 46.52-28.12L46.52-28.12Q46.52-26.56 45.44-25.54Q44.36-24.52 42.64-24.52L42.64-24.52Z M63.96 0.32Q60.52 0.32 57.78-1.10Q55.04-2.52 53.50-5.04Q51.96-7.56 51.96-10.76L51.96-10.76Q51.96-13.96 53.50-16.48Q55.04-19 57.78-20.42Q60.52-21.84 63.96-21.84L63.96-21.84Q67.36-21.84 69.90-20.42Q72.44-19 73.60-16.36L73.60-16.36L68.76-13.76Q67.08-16.72 63.92-16.72L63.92-16.72Q61.48-16.72 59.88-15.12Q58.28-13.52 58.28-10.76L58.28-10.76Q58.28-8 59.88-6.40Q61.48-4.80 63.92-4.80L63.92-4.80Q67.12-4.80 68.76-7.76L68.76-7.76L73.60-5.12Q72.44-2.56 69.90-1.12Q67.36 0.32 63.96 0.32L63.96 0.32Z M79.20 0L79.20-21.52L85.44-21.52L85.44 0L79.20 0ZM82.32-24.52Q80.60-24.52 79.52-25.52Q78.44-26.52 78.44-28L78.44-28Q78.44-29.48 79.52-30.48Q80.60-31.48 82.32-31.48L82.32-31.48Q84.04-31.48 85.12-30.52Q86.20-29.56 86.20-28.12L86.20-28.12Q86.20-26.56 85.12-25.54Q84.04-24.52 82.32-24.52L82.32-24.52Z M104.08-4.68Q105.76-4.68 107.06-5.18Q108.36-5.68 109.48-6.76L109.48-6.76L112.80-3.16Q109.76 0.32 103.92 0.32L103.92 0.32Q100.28 0.32 97.48-1.10Q94.68-2.52 93.16-5.04Q91.64-7.56 91.64-10.76L91.64-10.76Q91.64-13.92 93.14-16.46Q94.64-19 97.26-20.42Q99.88-21.84 103.16-21.84L103.16-21.84Q106.24-21.84 108.76-20.54Q111.28-19.24 112.78-16.78Q114.28-14.32 114.28-10.96L114.28-10.96L98.36-7.88Q99.04-6.28 100.50-5.48Q101.96-4.68 104.08-4.68L104.08-4.68ZM103.16-17.12Q100.80-17.12 99.32-15.60Q97.84-14.08 97.76-11.40L97.76-11.40L108.24-13.44Q107.80-15.12 106.44-16.12Q105.08-17.12 103.16-17.12L103.16-17.12Z M133.56-21.84Q137.56-21.84 140.02-19.44Q142.48-17.04 142.48-12.32L142.48-12.32L142.48 0L136.24 0L136.24-11.36Q136.24-13.92 135.12-15.18Q134-16.44 131.88-16.44L131.88-16.44Q129.52-16.44 128.12-14.98Q126.72-13.52 126.72-10.64L126.72-10.64L126.72 0L120.48 0L120.48-21.52L126.44-21.52L126.44-19Q127.68-20.36 129.52-21.10Q131.36-21.84 133.56-21.84L133.56-21.84Z M160.76 0.32Q157.32 0.32 154.58-1.10Q151.84-2.52 150.30-5.04Q148.76-7.56 148.76-10.76L148.76-10.76Q148.76-13.96 150.30-16.48Q151.84-19 154.58-20.42Q157.32-21.84 160.76-21.84L160.76-21.84Q164.16-21.84 166.70-20.42Q169.24-19 170.40-16.36L170.40-16.36L165.56-13.76Q163.88-16.72 160.72-16.72L160.72-16.72Q158.28-16.72 156.68-15.12Q155.08-13.52 155.08-10.76L155.08-10.76Q155.08-8 156.68-6.40Q158.28-4.80 160.72-4.80L160.72-4.80Q163.92-4.80 165.56-7.76L165.56-7.76L170.40-5.12Q169.24-2.56 166.70-1.12Q164.16 0.32 160.76 0.32L160.76 0.32Z M191.44-21.52L197.68-21.52L197.68-3.60Q197.68 2.32 194.68 5.20Q191.68 8.08 185.96 8.08L185.96 8.08Q182.92 8.08 180.22 7.32Q177.52 6.56 175.68 5.12L175.68 5.12L178.16 0.64Q179.52 1.76 181.48 2.40Q183.44 3.04 185.44 3.04L185.44 3.04Q188.56 3.04 190 1.60Q191.44 0.16 191.44-2.80L191.44-2.80L191.44-3.52Q190.24-2.32 188.60-1.68Q186.96-1.04 185.08-1.04L185.08-1.04Q180.84-1.04 178.36-3.46Q175.88-5.88 175.88-10.72L175.88-10.72L175.88-21.52L182.12-21.52L182.12-11.64Q182.12-6.40 186.48-6.40L186.48-6.40Q188.72-6.40 190.08-7.86Q191.44-9.32 191.44-12.20L191.44-12.20L191.44-21.52Z"/></g>
</svg>
</g><g opacity="1" transform="rotate(0 516.6768 308.5047)">
<svg width="5.97" height="99.5" x="516.6768" y="308.5047" version="1.1" preserveAspectRatio="none" viewBox="0 0 5.97 99.5">
  <rect x="0" y="0" width="5.97" height="99.5" class="aXmapOGdeCfillColor aXmapOGdeCstrokeColor-str" style="stroke-width:0;" rx="0px" ry="0px" />
</svg>
</g></svg>